<svg xmlns="http://www.w3.org/2000/svg" viewBox="0 0 100 100" fill="currentColor">
  <path d="m97.7 53.8c-0.6-4.3-1.1-8.6-1.7-13.4-0.4-2.6-1-5.1-1.8-8.4 1.4-1.4 2.8-3 3.6-5.2 1.5-4.2 0.9-8.4-1.9-11.8-2.1-2.4-4.9-4.1-8.2-4.3-2.7-0.2-5.2 0.5-7.9 2.3-3.1-2.2-6.5-4.1-10.2-5.4-5.2-1.8-10-2.8-17.7-3.1-7.8-0.1-14.7 0.6-21.2 3-3.2 1.2-6.7 2.9-10.5 5.5-2.1-1.3-4.4-2.2-7.1-2.2-4.3-0.1-8.5 2.5-10.3 6.3-1.9 4-1.2 9.4 1.4 12.5l1.9 2.3v0.1c-1 3-1.7 6.5-2.1 10.5s-0.9 8.4-1.6 13.1c-0.4 2.4-0.7 6-0.6 9.3 0.2 3.6 0.7 7 2.9 11.4 1.6 2.9 3.8 5.9 7 8.4 2.5 2.1 5.6 4 9.7 5.6 4.5 1.8 11.2 3.7 19.3 4.6 3 0.3 6.2 0.5 9.6 0.5s7.1-0.1 10.8-0.5c5.4-0.5 11.2-1.4 16.3-3.2 4.9-1.8 9.5-4 13.2-7.6 3.3-3.1 5.7-7.1 7.1-11.3 1.8-6 1-11.9 0-19zm-10-39.4c2.8 0.2 5.5 2.1 6.7 4.8 0.9 2.4 0.8 6.2-1.7 8.9l-0.1 0.2c-2-4.1-5-8.7-9.6-12.7 1.5-0.9 3.3-1.2 4.7-1.2zm-81.8 4.8c1.2-2.8 4.1-4.8 7.4-4.8 1.2 0 2.7 0.4 3.8 1.1-3.6 3.1-7.2 7.9-9.5 12.9-2.4-2.4-3-6.4-1.7-9.2zm87.2 54.9c-0.7 1.5-1.6 3-3.2 5-1.6 1.8-3.6 3.6-6.3 5.2-4.3 2.7-10.2 4.8-18.5 6.4-4.6 0.7-9.6 1.2-14.9 1.3-5.8 0-11.8-0.4-17.7-1.5-3.3-0.6-6.4-1.5-9.4-2.6-2.7-1-5.3-2.3-8.6-4.5-3.6-2.7-6.5-6.2-8-10.5-1.4-4.2-1.8-8.8-1-13.9 0.8-5.4 1.4-10.4 2-16.1 1.2-10 5.9-18.1 12.8-24.2 2.8-2.5 6.3-4.8 10.2-6.6 4.4-1.9 8.9-3.3 16.4-4 7.6-0.2 13.6 0.4 18.2 1.7 5.9 1.7 10.8 4.2 14.9 7.7 4.7 4 8.4 9.1 10.6 15.1 1 2.8 1.7 5.9 2.1 9.5 0.7 6.3 1.2 11.5 1.9 16.3 0.9 6.6 0.3 11.7-1.5 15.7z"/>
  <path d="m50 47c-2 0-5.9 0.5-5.9 2.8 0 1.7 1.9 4.8 5.8 4.8 3.8 0.1 5.8-2.7 5.9-4.7 0-2-2.7-2.9-5.8-2.9z"/>
  <path d="m31.1 39.7c-2.7-0.1-5.6 2-5.6 5s2.3 5 4.8 5c2.8 0.1 5.5-1.8 5.5-5.1 0-2.7-2.2-4.8-4.7-4.9zm1.5 4.6c-2-0.2-2-3.2 0-3 1.9 0.2 2.1 3 0 3z"/>
  <path d="m69.6 39.7c-3 0-5.4 2.4-5.4 5.2 0 2.2 1.9 4.8 5 4.8 3.4 0 5.3-2.3 5.3-5 0-2.6-2-5-4.9-5zm1.7 4.6c-1.9-0.2-2.2-2.9-0.1-3 2 0 2.3 3 0.1 3z"/>
  <path d="m23.7 51.1c-3.3-0.5-8.5 0.6-8.5 4.2 0.1 2.1 3.3 3.8 5.5 3.9 3.6 0.4 7.7-1.5 7.6-4.1-0.1-1.7-2.3-3.6-4.6-4zm-2.1 6.9c-1.7 0-5.1-0.9-5.1-2.7-0.1-1.7 3.1-3.1 5.5-3 2.1 0.1 5 1.2 5 3 0 1-1.9 2.6-5.4 2.7z"/>
  <path d="m78.3 51c-2.9 0-6.6 1.6-6.6 4.3 0 1.8 2.4 3.8 5.7 4 3.5 0.2 7.3-1.3 7.4-3.9 0.1-2.4-2.9-4.4-6.5-4.4zm-0.1 7c-1.8 0-5.2-0.9-5.2-2.7 0-1.7 2.9-3.1 5.2-3.1s5.3 1.4 5.3 3.1c0 1-1.9 2.7-5.3 2.7z"/>
</svg>
